<svg xmlns="http://www.w3.org/2000/svg" width="332.209" height="60.463" viewBox="0 0 332.209 60.463">
  <g id="undraw_welcome_cats_thqn" transform="translate(0 -46.447)">
    <ellipse id="Ellipse_1" data-name="Ellipse 1" cx="166.104" cy="4.646" rx="166.104" ry="4.646" transform="translate(0 97.617)" fill="#e6e6e6"/>
    <path id="Path_31" data-name="Path 31" d="M435.13,254.267v-5.479H407.736v55.131H435.13V298.44H413.215V254.267Z" transform="translate(-255.383 -202.341)" fill="#3f3d56"/>
    <path id="Path_32" data-name="Path 32" d="M672.253,469.1V524.23h27.394V469.1Zm21.916,49.652H677.732V474.578h16.437Z" transform="translate(-479.151 -422.652)" fill="#6c63ff"/>
    <path id="Path_33" data-name="Path 33" d="M304.16,299.015V249.7h-5.479v54.788h27.394v-5.479Z" transform="translate(-187.077 -202.916)" fill="#6c63ff"/>
    <path id="Path_34" data-name="Path 34" d="M219.77,254.267v-5.479H192.376v55.131H219.77V298.44H197.855V278.922H219.77v-5.479H197.855V254.267Z" transform="translate(-120.494 -202.341)" fill="#3f3d56"/>
    <path id="Path_35" data-name="Path 35" d="M793.452,254.267v-5.479H766.058v55.131h27.394V298.44H771.537V278.922h21.915v-5.479H771.537V254.267Z" transform="translate(-479.816 -202.341)" fill="#6c63ff"/>
    <path id="Path_36" data-name="Path 36" d="M84.628,249.418V294.7L70.182,280.254l-.033.033-.031-.031L55.351,295.025V249.247H49.872v54.788h5.479v-1.263l14.8-14.8,14.476,14.477v1.758h5.479V249.418Z" transform="translate(-31.237 -202.629)" fill="#3f3d56"/>
    <path id="Path_37" data-name="Path 37" d="M659.227,249.418v1.262l-14.8,14.8-14.476-14.476v-1.758H624.47v54.788h5.479V258.754L644.395,273.2l.033-.033.031.03,14.768-14.768v45.778h5.479V249.418Z" transform="translate(-391.133 -202.629)" fill="#3f3d56"/>
  </g>
</svg>
